<svg width="154" height="154" viewBox="0 0 154 154" fill="none" xmlns="http://www.w3.org/2000/svg">
<path d="M77 25.6667C66.8472 25.6667 56.9224 28.6773 48.4807 34.3179C40.039 39.9585 33.4595 47.9756 29.5742 57.3556C25.6889 66.7355 24.6723 77.0569 26.653 87.0146C28.6337 96.9723 33.5227 106.119 40.7018 113.298C47.8809 120.477 57.0277 125.366 66.9854 127.347C76.943 129.328 87.2645 128.311 96.6444 124.426C106.024 120.541 114.042 113.961 119.682 105.519C125.323 97.0775 128.333 87.1528 128.333 77C128.333 63.3856 122.925 50.3287 113.298 40.7019C103.671 31.075 90.6144 25.6667 77 25.6667V25.6667ZM77 119.778C68.5393 119.778 60.2687 117.269 53.2339 112.568C46.1992 107.868 40.7162 101.187 37.4785 93.3703C34.2407 85.5537 33.3936 76.9525 35.0442 68.6545C36.6948 60.3564 40.7689 52.7341 46.7515 46.7515C52.7341 40.769 60.3564 36.6948 68.6545 35.0442C76.9525 33.3936 85.5537 34.2407 93.3703 37.4785C101.187 40.7162 107.868 46.1992 112.568 53.2339C117.269 60.2687 119.778 68.5394 119.778 77C119.778 82.6177 118.671 88.1803 116.522 93.3703C114.372 98.5604 111.221 103.276 107.248 107.248C103.276 111.221 98.5604 114.372 93.3703 116.522C88.1803 118.671 82.6176 119.778 77 119.778V119.778Z" fill="#699BF7"/>
<path d="M77 85.855C75.5251 85.855 74.1106 85.2691 73.0677 84.2262C72.0248 83.1833 71.4389 81.7688 71.4389 80.2939V54.6272C71.4389 53.1523 72.0248 51.7378 73.0677 50.6949C74.1106 49.652 75.5251 49.0661 77 49.0661C78.4749 49.0661 79.8894 49.652 80.9323 50.6949C81.9752 51.7378 82.5611 53.1523 82.5611 54.6272V80.2939C82.5611 81.7688 81.9752 83.1833 80.9323 84.2262C79.8894 85.2691 78.4749 85.855 77 85.855Z" fill="#699BF7"/>
<path d="M76.7861 104.891C80.3299 104.891 83.2028 102.018 83.2028 98.4744C83.2028 94.9306 80.3299 92.0578 76.7861 92.0578C73.2423 92.0578 70.3694 94.9306 70.3694 98.4744C70.3694 102.018 73.2423 104.891 76.7861 104.891Z" fill="#699BF7"/>
</svg>
