<svg width="136" height="136" viewBox="0 0 136 136" fill="none" xmlns="http://www.w3.org/2000/svg">
<path d="M68 127.5C52.2196 127.5 37.0856 121.231 25.9271 110.073C14.7687 98.9144 8.5 83.7804 8.5 68C8.5 52.2196 14.7687 37.0856 25.9271 25.9271C37.0856 14.7687 52.2196 8.5 68 8.5C83.7804 8.5 98.9144 14.7687 110.073 25.9271C121.231 37.0856 127.5 52.2196 127.5 68C127.5 83.7804 121.231 98.9144 110.073 110.073C98.9144 121.231 83.7804 127.5 68 127.5ZM68 136C86.0347 136 103.331 128.836 116.083 116.083C128.836 103.331 136 86.0347 136 68C136 49.9653 128.836 32.6692 116.083 19.9167C103.331 7.16427 86.0347 0 68 0C49.9653 0 32.6692 7.16427 19.9167 19.9167C7.16427 32.6692 0 49.9653 0 68C0 86.0347 7.16427 103.331 19.9167 116.083C32.6692 128.836 49.9653 136 68 136V136Z" fill="#699BF7"/>
<path d="M93.245 42.245C93.1845 42.3037 93.1277 42.3661 93.075 42.432L63.5545 80.0445L45.764 62.2455C44.5555 61.1194 42.9571 60.5064 41.3056 60.5355C39.654 60.5647 38.0782 61.2337 36.9102 62.4017C35.7422 63.5697 35.0732 65.1455 35.044 66.7971C35.0149 68.4486 35.6279 70.047 36.754 71.2555L59.245 93.755C59.8509 94.3598 60.5724 94.8364 61.3665 95.1563C62.1605 95.4762 63.0109 95.6329 63.8668 95.617C64.7228 95.6011 65.5668 95.413 66.3484 95.0639C67.1301 94.7148 67.8334 94.2118 68.4165 93.585L102.349 51.17C103.504 49.9573 104.136 48.3386 104.107 46.6639C104.079 44.9891 103.392 43.3929 102.196 42.2203C101 41.0477 99.3904 40.3929 97.7154 40.3975C96.0405 40.4022 94.4346 41.0658 93.245 42.245V42.245Z" fill="#699BF7"/>
</svg>
